<svg width="235" height="106" viewBox="0 0 235 106" fill="none" xmlns="http://www.w3.org/2000/svg">
<ellipse cx="117.393" cy="53" rx="117.393" ry="53" fill="#D9D9D9" style="mix-blend-mode:color-burn"/>
<path d="M57.16 30V15.6H68.76C69.2667 15.6 69.7333 15.7267 70.16 15.98C70.5867 16.2333 70.9267 16.5733 71.18 17C71.4333 17.4133 71.56 17.8733 71.56 18.38V27.22C71.56 27.7267 71.4333 28.1933 71.18 28.62C70.9267 29.0333 70.5867 29.3667 70.16 29.62C69.7333 29.8733 69.2667 30 68.76 30H57.16ZM60.02 27.34H68.64C68.7067 27.34 68.7667 27.32 68.82 27.28C68.8733 27.2267 68.9 27.1667 68.9 27.1V18.5C68.9 18.4333 68.8733 18.38 68.82 18.34C68.7667 18.2867 68.7067 18.26 68.64 18.26H60.02C59.9533 18.26 59.8933 18.2867 59.84 18.34C59.8 18.38 59.78 18.4333 59.78 18.5V27.1C59.78 27.1667 59.8 27.2267 59.84 27.28C59.8933 27.32 59.9533 27.34 60.02 27.34ZM73.8397 30V15.6H87.0997V18.26H76.4997V21.46H85.0197V24.14H76.4997V27.34H87.0997V30H73.8397ZM89.1522 30V18.38C89.1522 17.8733 89.2789 17.4133 89.5322 17C89.7855 16.5733 90.1189 16.2333 90.5322 15.98C90.9589 15.7267 91.4255 15.6 91.9322 15.6H100.752C101.259 15.6 101.726 15.7267 102.152 15.98C102.579 16.2333 102.919 16.5733 103.172 17C103.426 17.4133 103.552 17.8733 103.552 18.38V30H100.892V25.16H91.7922V30H89.1522ZM91.7922 22.52H100.892V18.5C100.892 18.4333 100.866 18.38 100.812 18.34C100.759 18.2867 100.699 18.26 100.632 18.26H92.0322C91.9655 18.26 91.9055 18.2867 91.8522 18.34C91.8122 18.38 91.7922 18.4333 91.7922 18.5V22.52ZM105.871 30V15.6H117.471C117.978 15.6 118.444 15.7267 118.871 15.98C119.298 16.2333 119.638 16.5733 119.891 17C120.144 17.4133 120.271 17.8733 120.271 18.38V27.22C120.271 27.7267 120.144 28.1933 119.891 28.62C119.638 29.0333 119.298 29.3667 118.871 29.62C118.444 29.8733 117.978 30 117.471 30H105.871ZM108.731 27.34H117.351C117.418 27.34 117.478 27.32 117.531 27.28C117.584 27.2267 117.611 27.1667 117.611 27.1V18.5C117.611 18.4333 117.584 18.38 117.531 18.34C117.478 18.2867 117.418 18.26 117.351 18.26H108.731C108.664 18.26 108.604 18.2867 108.551 18.34C108.511 18.38 108.491 18.4333 108.491 18.5V27.1C108.491 27.1667 108.511 27.2267 108.551 27.28C108.604 27.32 108.664 27.34 108.731 27.34ZM122.531 30V15.58H125.171V27.34H136.931V30H122.531ZM137.817 30V15.6H140.437V30H137.817ZM142.374 30V15.6H145.274L154.114 26.12V15.6H156.774V30H153.874L145.014 19.46V30H142.374ZM159.055 30V15.6H172.315V18.26H161.715V21.46H170.235V24.14H161.715V27.34H172.315V30H159.055Z" fill="white"/>
</svg>
