<svg width="833" height="114" viewBox="0 0 833 114" fill="none" xmlns="http://www.w3.org/2000/svg">
<g filter="url(#filter0_ii_199_65)">
<path d="M2.88028 2H830.12V111.343H2.88028V2Z" fill="#128947"/>
</g>
<path d="M831.12 1V112.343H1.88028V1H831.12Z" stroke="black" stroke-width="2"/>
<path d="M58.4 77.8V55.4H75.2V89H36V33H75.2V44.2H52.8V77.8H58.4ZM83.1875 89V33H122.388V89H105.588V66.6H99.9875V89H83.1875ZM105.588 55.4V44.2H99.9875V55.4H105.588ZM147.175 66.6V89H130.375V33H147.175V44.2H152.775V55.4H163.975V44.2H169.575V33H186.375V89H169.575V66.6H163.975V77.8H152.775V66.6H147.175ZM194.359 89V33H233.559V66.6H211.159V89H194.359ZM216.759 55.4V44.2H211.159V55.4H216.759ZM241.547 89V33H258.347V77.8H275.147V89H241.547ZM283.109 89V33H322.309V89H305.509V66.6H299.909V89H283.109ZM305.509 55.4V44.2H299.909V55.4H305.509ZM330.297 61V33H347.097V49.8H352.697V33H369.497V61H358.297V89H341.497V61H330.297ZM410.3 66.6V89H393.5V33H410.3V44.2H415.9V55.4H427.1V44.2H432.7V33H449.5V89H432.7V66.6H427.1V77.8H415.9V66.6H410.3ZM474.284 66.6V77.8H496.684V89H457.484V33H496.684V44.2H474.284V55.4H491.084V66.6H474.284ZM538.272 77.8V89H504.672V33H538.272V44.2H521.472V77.8H538.272ZM546.234 89V33H563.034V55.4H568.634V33H585.434V89H568.634V66.6H563.034V89H546.234ZM593.422 89V33H632.622V89H615.822V66.6H610.222V89H593.422ZM615.822 55.4V44.2H610.222V55.4H615.822ZM657.409 66.6V89H640.609V33H657.409V44.2H663.009V55.4H668.609V33H685.409V89H668.609V77.8H663.009V66.6H657.409ZM693.422 89V33H710.222V89H693.422ZM751.788 77.8V89H718.188V33H751.788V44.2H734.988V77.8H751.788ZM759.75 66.6V33H798.95V44.2H776.55V55.4H798.95V89H759.75V77.8H782.15V66.6H759.75Z" fill="white"/>
<defs>
<filter id="filter0_ii_199_65" x="0.88028" y="0" width="831.24" height="113.343" filterUnits="userSpaceOnUse" color-interpolation-filters="sRGB">
<feFlood flood-opacity="0" result="BackgroundImageFix"/>
<feBlend mode="normal" in="SourceGraphic" in2="BackgroundImageFix" result="shape"/>
<feColorMatrix in="SourceAlpha" type="matrix" values="0 0 0 0 0 0 0 0 0 0 0 0 0 0 0 0 0 0 127 0" result="hardAlpha"/>
<feOffset dy="4"/>
<feComposite in2="hardAlpha" operator="arithmetic" k2="-1" k3="1"/>
<feColorMatrix type="matrix" values="0 0 0 0 0.207843 0 0 0 0 0.807843 0 0 0 0 0.286275 0 0 0 1 0"/>
<feBlend mode="normal" in2="shape" result="effect1_innerShadow_199_65"/>
<feColorMatrix in="SourceAlpha" type="matrix" values="0 0 0 0 0 0 0 0 0 0 0 0 0 0 0 0 0 0 127 0" result="hardAlpha"/>
<feOffset dy="-4"/>
<feComposite in2="hardAlpha" operator="arithmetic" k2="-1" k3="1"/>
<feColorMatrix type="matrix" values="0 0 0 0 0.0431373 0 0 0 0 0.305882 0 0 0 0 0.176471 0 0 0 1 0"/>
<feBlend mode="normal" in2="effect1_innerShadow_199_65" result="effect2_innerShadow_199_65"/>
</filter>
</defs>
</svg>
