<svg width="582" height="132" viewBox="0 0 582 132" fill="none" xmlns="http://www.w3.org/2000/svg">
<path d="M67.2881 45.12V72H47.1281V4.8H67.2881V18.24H74.0081V31.68H87.4481V18.24H94.1681V4.8H114.328V72H94.1681V45.12H87.4481V58.56H74.0081V45.12H67.2881ZM123.909 72V4.8H144.069V72H123.909ZM173.788 45.12V72H153.628V4.8H173.788V18.24H180.508V31.68H187.228V4.8H207.388V72H187.228V58.56H180.508V45.12H173.788ZM237.163 45.12V58.56H264.043V72H217.003V4.8H264.043V18.24H237.163V31.68H257.323V45.12H237.163ZM273.628 45.12V4.8H293.788V31.68H300.508V4.8H320.668V45.12H313.948V58.56H307.228V72H287.068V58.56H280.348V45.12H273.628ZM350.413 45.12V58.56H377.293V72H330.253V4.8H377.293V18.24H350.413V31.68H370.573V45.12H350.413ZM386.878 72V4.8H433.918V31.68H427.198V38.4H433.918V72H413.758V45.12H407.038V72H386.878ZM413.758 31.68V18.24H407.038V31.68H413.758ZM443.503 45.12V4.8H490.543V18.24H463.663V31.68H490.543V72H443.503V58.56H470.383V45.12H443.503ZM520.288 45.12V58.56H547.168V72H500.128V4.8H547.168V18.24H520.288V31.68H540.448V45.12H520.288ZM556.753 38.4V18.24H576.913V38.4H556.753ZM556.753 72V51.84H576.913V72H556.753Z" fill="#D9D9D9"/>
<path d="M76.0891 122C75.0757 122 74.1424 121.747 73.2891 121.24C72.4624 120.733 71.7957 120.067 71.2891 119.24C70.7824 118.387 70.5291 117.453 70.5291 116.44V98.76C70.5291 97.7467 70.7824 96.8267 71.2891 96C71.7957 95.1467 72.4624 94.4667 73.2891 93.96C74.1424 93.4533 75.0757 93.2 76.0891 93.2H99.2491V98.52H77.2091C76.7824 98.52 76.4357 98.64 76.1691 98.88C75.9291 99.12 75.8091 99.4667 75.8091 99.92V115.28C75.8091 115.707 75.9291 116.053 76.1691 116.32C76.4357 116.56 76.7824 116.68 77.2091 116.68H99.2491V122H76.0891ZM108.74 122C107.726 122 106.806 121.747 105.98 121.24C105.153 120.733 104.486 120.067 103.98 119.24C103.473 118.413 103.22 117.493 103.22 116.48V104.32C103.22 103.307 103.473 102.387 103.98 101.56C104.486 100.733 105.153 100.067 105.98 99.56C106.806 99.0533 107.726 98.8 108.74 98.8H121.26C122.273 98.8 123.193 99.0533 124.02 99.56C124.873 100.067 125.54 100.733 126.02 101.56C126.526 102.387 126.78 103.307 126.78 104.32V116.48C126.78 117.493 126.526 118.413 126.02 119.24C125.54 120.067 124.886 120.733 124.06 121.24C123.233 121.747 122.3 122 121.26 122H108.74ZM108.94 116.76H121.06C121.193 116.76 121.3 116.72 121.38 116.64C121.486 116.533 121.54 116.413 121.54 116.28V104.52C121.54 104.387 121.486 104.28 121.38 104.2C121.3 104.093 121.193 104.04 121.06 104.04H108.94C108.806 104.04 108.686 104.093 108.58 104.2C108.5 104.28 108.46 104.387 108.46 104.52V116.28C108.46 116.413 108.5 116.533 108.58 116.64C108.686 116.72 108.806 116.76 108.94 116.76ZM135.315 122C134.275 122 133.342 121.747 132.515 121.24C131.688 120.733 131.022 120.067 130.515 119.24C130.035 118.413 129.795 117.493 129.795 116.48V104.32C129.795 103.307 130.035 102.387 130.515 101.56C131.022 100.733 131.688 100.067 132.515 99.56C133.342 99.0533 134.275 98.8 135.315 98.8H148.155V91.2H153.395V122H135.315ZM135.555 116.76H147.675C147.808 116.76 147.915 116.72 147.995 116.64C148.102 116.533 148.155 116.413 148.155 116.28V104.52C148.155 104.387 148.102 104.28 147.995 104.2C147.915 104.093 147.808 104.04 147.675 104.04H135.555C135.422 104.04 135.302 104.093 135.195 104.2C135.115 104.28 135.075 104.387 135.075 104.52V116.28C135.075 116.413 135.115 116.533 135.195 116.64C135.302 116.72 135.422 116.76 135.555 116.76ZM162.255 122C161.242 122 160.322 121.747 159.495 121.24C158.669 120.733 158.002 120.067 157.495 119.24C156.989 118.413 156.735 117.493 156.735 116.48V104.32C156.735 103.307 156.989 102.387 157.495 101.56C158.002 100.733 158.669 100.067 159.495 99.56C160.322 99.0533 161.242 98.8 162.255 98.8H174.775C175.789 98.8 176.709 99.0533 177.535 99.56C178.389 100.067 179.055 100.733 179.535 101.56C180.042 102.387 180.295 103.307 180.295 104.32V113.04H161.975V116.28C161.975 116.413 162.015 116.533 162.095 116.64C162.202 116.72 162.322 116.76 162.455 116.76H180.295V122H162.255ZM161.975 108.32H175.055V104.52C175.055 104.387 175.002 104.28 174.895 104.2C174.815 104.093 174.709 104.04 174.575 104.04H162.455C162.322 104.04 162.202 104.093 162.095 104.2C162.015 104.28 161.975 104.387 161.975 104.52V108.32ZM221.43 122V93.2H243.51C244.524 93.2 245.444 93.4533 246.27 93.96C247.124 94.4667 247.804 95.1467 248.31 96C248.817 96.8267 249.07 97.7467 249.07 98.76V104.4C249.07 104.747 249.044 105.08 248.99 105.4C248.937 105.72 248.844 106.027 248.71 106.32C249.164 106.933 249.524 107.573 249.79 108.24C250.084 108.907 250.23 109.573 250.23 110.24V116.44C250.23 117.453 249.977 118.387 249.47 119.24C248.964 120.067 248.284 120.733 247.43 121.24C246.577 121.747 245.644 122 244.63 122H221.43ZM227.19 116.68H244.39C244.524 116.68 244.644 116.64 244.75 116.56C244.857 116.453 244.91 116.333 244.91 116.2V110.48C244.91 110.347 244.857 110.24 244.75 110.16C244.644 110.053 244.524 110 244.39 110H227.19C227.057 110 226.937 110.053 226.83 110.16C226.75 110.24 226.71 110.347 226.71 110.48V116.2C226.71 116.333 226.75 116.453 226.83 116.56C226.937 116.64 227.057 116.68 227.19 116.68ZM227.19 104.68H243.27C243.404 104.68 243.51 104.64 243.59 104.56C243.67 104.453 243.71 104.333 243.71 104.2V99C243.71 98.8667 243.67 98.76 243.59 98.68C243.51 98.5733 243.404 98.52 243.27 98.52H227.19C227.057 98.52 226.937 98.5733 226.83 98.68C226.75 98.76 226.71 98.8667 226.71 99V104.2C226.71 104.333 226.75 104.453 226.83 104.56C226.937 104.64 227.057 104.68 227.19 104.68ZM259.992 122C258.978 122 258.045 121.747 257.192 121.24C256.365 120.733 255.698 120.067 255.192 119.24C254.712 118.413 254.472 117.493 254.472 116.48V98.8H259.712V116.28C259.712 116.413 259.752 116.533 259.832 116.64C259.938 116.72 260.058 116.76 260.192 116.76H272.312C272.445 116.76 272.552 116.72 272.632 116.64C272.738 116.533 272.792 116.413 272.792 116.28V98.8H278.032V116.48C278.032 117.493 277.778 118.413 277.272 119.24C276.792 120.067 276.138 120.733 275.312 121.24C274.485 121.747 273.552 122 272.512 122H259.992ZM282.244 122V98.8H287.484V122H282.244ZM282.244 96.48V91.2H287.484V96.48H282.244ZM297.452 122C296.438 122 295.518 121.747 294.692 121.24C293.865 120.733 293.198 120.067 292.692 119.24C292.185 118.413 291.932 117.493 291.932 116.48V91.16H297.212V116.28C297.212 116.413 297.252 116.533 297.332 116.64C297.438 116.72 297.558 116.76 297.692 116.76H302.132V122H297.452ZM310.237 122C309.197 122 308.264 121.747 307.437 121.24C306.61 120.733 305.944 120.067 305.437 119.24C304.957 118.413 304.717 117.493 304.717 116.48V104.32C304.717 103.307 304.957 102.387 305.437 101.56C305.944 100.733 306.61 100.067 307.437 99.56C308.264 99.0533 309.197 98.8 310.237 98.8H323.077V91.2H328.317V122H310.237ZM310.477 116.76H322.597C322.73 116.76 322.837 116.72 322.917 116.64C323.024 116.533 323.077 116.413 323.077 116.28V104.52C323.077 104.387 323.024 104.28 322.917 104.2C322.837 104.093 322.73 104.04 322.597 104.04H310.477C310.344 104.04 310.224 104.093 310.117 104.2C310.037 104.28 309.997 104.387 309.997 104.52V116.28C309.997 116.413 310.037 116.533 310.117 116.64C310.224 116.72 310.344 116.76 310.477 116.76ZM374.956 122C373.943 122 373.01 121.747 372.156 121.24C371.33 120.733 370.663 120.067 370.156 119.24C369.65 118.387 369.396 117.453 369.396 116.44V98.76C369.396 97.7467 369.65 96.8267 370.156 96C370.663 95.1467 371.33 94.4667 372.156 93.96C373.01 93.4533 373.943 93.2 374.956 93.2H398.116V98.52H376.076C375.65 98.52 375.303 98.64 375.036 98.88C374.796 99.12 374.676 99.4667 374.676 99.92V115.28C374.676 115.707 374.796 116.053 375.036 116.32C375.303 116.56 375.65 116.68 376.076 116.68H398.116V122H374.956ZM407.607 122C406.594 122 405.674 121.747 404.847 121.24C404.02 120.733 403.354 120.067 402.847 119.24C402.34 118.413 402.087 117.493 402.087 116.48V104.32C402.087 103.307 402.34 102.387 402.847 101.56C403.354 100.733 404.02 100.067 404.847 99.56C405.674 99.0533 406.594 98.8 407.607 98.8H420.127C421.14 98.8 422.06 99.0533 422.887 99.56C423.74 100.067 424.407 100.733 424.887 101.56C425.394 102.387 425.647 103.307 425.647 104.32V116.48C425.647 117.493 425.394 118.413 424.887 119.24C424.407 120.067 423.754 120.733 422.927 121.24C422.1 121.747 421.167 122 420.127 122H407.607ZM407.807 116.76H419.927C420.06 116.76 420.167 116.72 420.247 116.64C420.354 116.533 420.407 116.413 420.407 116.28V104.52C420.407 104.387 420.354 104.28 420.247 104.2C420.167 104.093 420.06 104.04 419.927 104.04H407.807C407.674 104.04 407.554 104.093 407.447 104.2C407.367 104.28 407.327 104.387 407.327 104.52V116.28C407.327 116.413 407.367 116.533 407.447 116.64C407.554 116.72 407.674 116.76 407.807 116.76ZM428.926 122V98.8H446.966C447.979 98.8 448.899 99.0533 449.726 99.56C450.579 100.067 451.246 100.733 451.726 101.56C452.232 102.387 452.486 103.307 452.486 104.32V122H447.246V104.52C447.246 104.387 447.192 104.28 447.086 104.2C447.006 104.093 446.899 104.04 446.766 104.04H434.646C434.512 104.04 434.392 104.093 434.286 104.2C434.206 104.28 434.166 104.387 434.166 104.52V122H428.926ZM473.777 131.2V122H460.937C459.897 122 458.964 121.747 458.137 121.24C457.311 120.733 456.644 120.067 456.137 119.24C455.657 118.413 455.417 117.493 455.417 116.48V104.32C455.417 103.307 455.657 102.387 456.137 101.56C456.644 100.733 457.311 100.067 458.137 99.56C458.964 99.0533 459.897 98.8 460.937 98.8H479.017V131.2H473.777ZM461.177 116.76H473.297C473.431 116.76 473.537 116.72 473.617 116.64C473.724 116.533 473.777 116.413 473.777 116.28V104.52C473.777 104.387 473.724 104.28 473.617 104.2C473.537 104.093 473.431 104.04 473.297 104.04H461.177C461.044 104.04 460.924 104.093 460.817 104.2C460.737 104.28 460.697 104.387 460.697 104.52V116.28C460.697 116.413 460.737 116.533 460.817 116.64C460.924 116.72 461.044 116.76 461.177 116.76ZM488.038 122C487.025 122 486.092 121.747 485.238 121.24C484.412 120.733 483.745 120.067 483.238 119.24C482.758 118.413 482.518 117.493 482.518 116.48V98.8H487.758V116.28C487.758 116.413 487.798 116.533 487.878 116.64C487.985 116.72 488.105 116.76 488.238 116.76H500.358C500.492 116.76 500.598 116.72 500.678 116.64C500.785 116.533 500.838 116.413 500.838 116.28V98.8H506.078V116.48C506.078 117.493 505.825 118.413 505.318 119.24C504.838 120.067 504.185 120.733 503.358 121.24C502.532 121.747 501.598 122 500.558 122H488.038ZM514.912 122C513.898 122 512.978 121.747 512.152 121.24C511.325 120.733 510.658 120.067 510.152 119.24C509.645 118.413 509.392 117.493 509.392 116.48V104.32C509.392 103.307 509.645 102.387 510.152 101.56C510.658 100.733 511.325 100.067 512.152 99.56C512.978 99.0533 513.898 98.8 514.912 98.8H527.432C528.445 98.8 529.365 99.0533 530.192 99.56C531.045 100.067 531.712 100.733 532.192 101.56C532.698 102.387 532.952 103.307 532.952 104.32V113.04H514.632V116.28C514.632 116.413 514.672 116.533 514.752 116.64C514.858 116.72 514.978 116.76 515.112 116.76H532.952V122H514.912ZM514.632 108.32H527.712V104.52C527.712 104.387 527.658 104.28 527.552 104.2C527.472 104.093 527.365 104.04 527.232 104.04H515.112C514.978 104.04 514.858 104.093 514.752 104.2C514.672 104.28 514.632 104.387 514.632 104.52V108.32ZM536.893 122V104.32C536.893 103.307 537.146 102.387 537.653 101.56C538.159 100.733 538.826 100.067 539.653 99.56C540.506 99.0533 541.426 98.8 542.413 98.8H555.293V104.04H542.613C542.479 104.04 542.359 104.093 542.253 104.2C542.173 104.28 542.133 104.387 542.133 104.52V122H536.893Z" fill="#4FE4B0"/>
</svg>
