<svg width="968" height="114" viewBox="0 0 968 114" fill="none" xmlns="http://www.w3.org/2000/svg">
<g filter="url(#filter0_ii_199_50)">
<path d="M2.94276 2H965.696V111.343H2.94276V2Z" fill="#128947"/>
</g>
<path d="M966.696 1V112.343H1.94276V1H966.696Z" stroke="black" stroke-width="2"/>
<path d="M30 77V21H69.2V43.4H63.6V49H69.2V77H52.4V54.6H46.8V77H30ZM52.4 43.4V32.2H46.8V43.4H52.4ZM77.1875 77V21H93.9875V65.8H99.5875V21H116.388V77H77.1875ZM124.375 77V21H141.175V65.8H157.975V77H124.375ZM182.738 54.6V65.8H205.138V77H165.938V21H205.138V32.2H182.738V43.4H199.538V54.6H182.738ZM213.125 54.6V21H252.325V32.2H229.925V43.4H252.325V77H213.125V65.8H235.525V54.6H213.125ZM276.328 77V21H315.528V77H298.728V54.6H293.128V77H276.328ZM298.728 43.4V32.2H293.128V43.4H298.728ZM340.316 54.6V77H323.516V21H340.316V32.2H345.916V43.4H351.516V21H368.316V77H351.516V65.8H345.916V54.6H340.316ZM376.328 77V21H409.928V26.6H415.528V71.4H409.928V77H376.328ZM398.728 65.8V32.2H393.128V65.8H398.728ZM439.531 77V21H478.731V43.4H473.131V49H478.731V77H461.931V54.6H456.331V77H439.531ZM461.931 43.4V32.2H456.331V43.4H461.931ZM503.519 54.6V65.8H525.919V77H486.719V21H525.919V32.2H503.519V43.4H520.319V54.6H503.519ZM556.306 65.8V43.4H573.106V77H533.906V21H573.106V32.2H550.706V65.8H556.306ZM581.094 77V21H597.894V65.8H603.494V21H620.294V77H581.094ZM628.281 77V21H645.081V65.8H661.881V77H628.281ZM669.844 77V21H709.044V77H692.244V54.6H686.644V77H669.844ZM692.244 43.4V32.2H686.644V43.4H692.244ZM745.031 32.2V77H728.231V32.2H717.031V21H756.231V32.2H745.031ZM764.219 77V21H781.019V77H764.219ZM788.984 77V21H828.184V77H788.984ZM811.384 65.8V32.2H805.784V65.8H811.384ZM852.972 54.6V77H836.172V21H852.972V32.2H858.572V43.4H864.172V21H880.972V77H864.172V65.8H858.572V54.6H852.972ZM888.984 54.6V21H928.184V32.2H905.784V43.4H928.184V77H888.984V65.8H911.384V54.6H888.984Z" fill="white"/>
<defs>
<filter id="filter0_ii_199_50" x="0.942764" y="0" width="966.753" height="113.343" filterUnits="userSpaceOnUse" color-interpolation-filters="sRGB">
<feFlood flood-opacity="0" result="BackgroundImageFix"/>
<feBlend mode="normal" in="SourceGraphic" in2="BackgroundImageFix" result="shape"/>
<feColorMatrix in="SourceAlpha" type="matrix" values="0 0 0 0 0 0 0 0 0 0 0 0 0 0 0 0 0 0 127 0" result="hardAlpha"/>
<feOffset dy="4"/>
<feComposite in2="hardAlpha" operator="arithmetic" k2="-1" k3="1"/>
<feColorMatrix type="matrix" values="0 0 0 0 0.207843 0 0 0 0 0.807843 0 0 0 0 0.286275 0 0 0 1 0"/>
<feBlend mode="normal" in2="shape" result="effect1_innerShadow_199_50"/>
<feColorMatrix in="SourceAlpha" type="matrix" values="0 0 0 0 0 0 0 0 0 0 0 0 0 0 0 0 0 0 127 0" result="hardAlpha"/>
<feOffset dy="-4"/>
<feComposite in2="hardAlpha" operator="arithmetic" k2="-1" k3="1"/>
<feColorMatrix type="matrix" values="0 0 0 0 0.0431373 0 0 0 0 0.305882 0 0 0 0 0.176471 0 0 0 1 0"/>
<feBlend mode="normal" in2="effect1_innerShadow_199_50" result="effect2_innerShadow_199_50"/>
</filter>
</defs>
</svg>
